<svg width="50" height="48" viewBox="0 0 50 48" fill="none" xmlns="http://www.w3.org/2000/svg">
<g id="Logo">
<path id="Vector" d="M33.8468 13.3864C34.156 13.3977 34.455 13.5011 34.7069 13.6838C34.9588 13.8665 35.1525 14.1204 35.2638 14.414C35.3752 14.7076 35.3994 15.0281 35.3334 15.3357C35.2675 15.6432 35.1143 15.9244 34.8928 16.1443L17.7724 32.6504C17.177 33.2267 16.7008 33.9181 16.3717 34.6842C16.0427 35.4503 15.8674 36.2755 15.8563 37.1114C15.8344 37.9656 15.9822 38.8154 16.2907 39.61C16.5992 40.4046 17.0621 41.1277 17.6517 41.7359C18.8367 42.9756 20.4533 43.6917 22.1529 43.7298C23.8525 43.7678 25.499 43.1248 26.7373 41.9393L44.9886 24.3325C45.3749 23.9639 45.6845 23.5202 45.899 23.0277C46.1135 22.5351 46.2285 22.0037 46.2373 21.4651C46.2522 20.9266 46.1606 20.3906 45.968 19.8889C45.7753 19.3872 45.4855 18.9301 45.1158 18.5446C44.3641 17.7567 43.3377 17.3014 42.2586 17.2773C41.1794 17.2531 40.134 17.662 39.3484 18.4155L22.149 34.9199C21.9922 35.0757 21.8672 35.2615 21.7813 35.4666C21.6954 35.6718 21.6502 35.8922 21.6485 36.1151C21.6614 36.5755 21.8503 37.0125 22.175 37.3333C22.4934 37.6695 22.9295 37.8639 23.3883 37.8742C23.8471 37.8845 24.2913 37.7097 24.6242 37.3881L40.612 22.063C40.7518 21.8817 40.9284 21.7332 41.1295 21.6274C41.3307 21.5216 41.5519 21.461 41.7781 21.4497C42.0043 21.4385 42.2302 21.4768 42.4405 21.5621C42.6508 21.6473 42.8406 21.7776 42.9971 21.9441C43.1536 22.1106 43.2731 22.3093 43.3476 22.5269C43.422 22.7444 43.4496 22.9758 43.4285 23.2052C43.4074 23.4346 43.3381 23.6567 43.2253 23.8565C43.1125 24.0563 42.9588 24.2292 42.7746 24.3633L26.7043 39.8475C25.7543 40.7498 24.4954 41.2386 23.1964 41.2095C21.8974 41.1804 20.6612 40.6357 19.7518 39.6918C19.3056 39.2252 18.9552 38.6729 18.721 38.067C18.4868 37.4611 18.3736 36.8137 18.3879 36.1628C18.4022 35.5118 18.5438 34.8701 18.8044 34.2753C19.0649 33.6805 19.4393 33.1444 19.9056 32.6982L37.1875 16.0348C38.5768 14.7053 40.4236 13.9842 42.33 14.0269C44.2364 14.0696 46.0497 14.8726 47.3792 16.263C48.0333 16.9508 48.5467 17.7638 48.8896 18.6551C49.2326 19.5463 49.3984 20.498 49.3774 21.455C49.3563 22.412 49.1489 23.3553 48.7671 24.2303C48.3852 25.1053 47.8366 25.8946 47.153 26.5524L28.9 44.2396C27.0579 46.0011 24.61 46.9563 22.0832 46.8997C19.5564 46.8432 17.1529 45.7793 15.39 43.9372C14.5162 43.0265 13.8298 41.9475 13.3711 40.7634C12.9123 39.5793 12.6904 38.3138 12.7184 37.0412C12.7464 35.7685 13.0237 34.5142 13.534 33.3518C14.0444 32.1894 14.7775 31.1421 15.6905 30.2715L32.7301 13.8439C33.0285 13.5475 33.4299 13.3831 33.8468 13.3864Z" fill="url(#paint0_angular_3_176)"/>
<path id="Vector_2" d="M15.6969 34.3688C15.3878 34.355 15.0895 34.2491 14.839 34.0644C14.5885 33.8796 14.3968 33.6241 14.2877 33.3296C14.1785 33.0351 14.1568 32.7144 14.225 32.4074C14.2933 32.1004 14.4486 31.8205 14.6718 31.6024L31.9162 15.2369C32.5159 14.6656 32.9973 13.978 33.3322 13.2146C33.667 12.4513 33.8485 11.6275 33.8659 10.7917C33.8942 9.93775 33.7529 9.08673 33.4504 8.28962C33.148 7.4925 32.6905 6.76567 32.1055 6.15263C30.9299 4.9032 29.3188 4.17388 27.6195 4.1219C25.9203 4.06992 24.2691 4.69945 23.0218 5.87476L4.63828 23.3316C4.24921 23.697 3.93628 24.1382 3.71805 24.629C3.49983 25.1198 3.38077 25.6502 3.36795 26.1887C3.34895 26.7271 3.43648 27.2638 3.62533 27.7671C3.81418 28.2703 4.10051 28.7298 4.4673 29.1183C5.21303 29.9124 6.23591 30.3761 7.31487 30.4091C8.39384 30.4421 9.44224 30.0418 10.2335 29.2947L27.5569 12.9316C27.7149 12.7771 27.8413 12.5923 27.9287 12.3879C28.0162 12.1835 28.063 11.9635 28.0664 11.7405C28.057 11.2801 27.8714 10.8415 27.5491 10.5181C27.2333 10.1793 26.7987 9.98128 26.34 9.96724C25.8813 9.95321 25.4357 10.1243 25.1005 10.4432L8.99756 25.637C8.85631 25.817 8.67868 25.9641 8.4767 26.0683C8.27471 26.1724 8.05309 26.2312 7.82684 26.2406C7.60059 26.2501 7.37499 26.2099 7.16532 26.1229C6.95565 26.0359 6.7668 25.904 6.61157 25.7363C6.45633 25.5685 6.33834 25.3688 6.26557 25.1506C6.1928 24.9325 6.16695 24.7009 6.18979 24.4717C6.21262 24.2425 6.28359 24.0209 6.39791 23.822C6.51222 23.6231 6.6672 23.4516 6.85235 23.3189L23.039 7.96681C23.9958 7.07232 25.2583 6.59387 26.5571 6.63359C27.8558 6.67332 29.0878 7.22809 29.9901 8.17944C30.4327 8.64967 30.779 9.20489 31.0085 9.8127C31.2381 10.4205 31.3464 11.0688 31.3272 11.7196C31.308 12.3705 31.1616 13.0109 30.8965 13.6036C30.6315 14.1963 30.2531 14.7293 29.7835 15.1717L12.3763 31.6931C10.9771 33.0111 9.12484 33.7171 7.21885 33.6588C5.31286 33.6005 3.50568 32.7826 2.18674 31.3814C1.53791 30.6882 1.03069 29.871 0.694451 28.977C0.358212 28.0829 0.199636 27.1299 0.227907 26.1731C0.256178 25.2163 0.470734 24.2747 0.85915 23.4029C1.24757 22.531 1.80212 21.7462 2.4907 21.094L20.8766 3.55674C22.7319 1.81046 25.1869 0.875284 27.7132 0.952561C30.2394 1.02984 32.6349 2.11339 34.3837 3.96992C35.2506 4.88774 35.9289 5.97234 36.3786 7.1602C36.8284 8.34806 37.0407 9.6153 37.0031 10.8877C36.9655 12.1601 36.6788 13.4121 36.1597 14.5703C35.6406 15.7285 34.8996 16.7697 33.98 17.6329L16.817 33.9204C16.5164 34.2144 16.1138 34.3755 15.6969 34.3688Z" fill="url(#paint1_angular_3_176)"/>
</g>
<defs>
<radialGradient id="paint0_angular_3_176" cx="0" cy="0" r="1" gradientUnits="userSpaceOnUse" gradientTransform="translate(31.0267 30.2116) rotate(-88.7404) scale(16.8841 18.1537)">
<stop stop-color="#F523C7" stop-opacity="0"/>
<stop offset="0.2051" stop-color="#887283"/>
<stop offset="0.56" stop-color="#A36795" stop-opacity="0.875"/>
<stop offset="0.635" stop-color="#E91EBC" stop-opacity="0.339968"/>
<stop offset="0.89" stop-color="#BB0092" stop-opacity="0.339968"/>
</radialGradient>
<radialGradient id="paint1_angular_3_176" cx="0" cy="0" r="1" gradientUnits="userSpaceOnUse" gradientTransform="translate(18.644 17.5671) rotate(91.6924) scale(16.884 18.1539)">
<stop stop-color="#F523C7" stop-opacity="0"/>
<stop offset="0.2051" stop-color="#887283"/>
<stop offset="0.56" stop-color="#A36795" stop-opacity="0.875"/>
<stop offset="0.635" stop-color="#E91EBC" stop-opacity="0.339968"/>
<stop offset="0.89" stop-color="#BB0092" stop-opacity="0.339968"/>
</radialGradient>
</defs>
</svg>
