<svg width="242" height="48" viewBox="0 0 242 48" fill="none" xmlns="http://www.w3.org/2000/svg">
<path d="M33.8468 13.3864C34.156 13.3977 34.455 13.5011 34.7069 13.6838C34.9588 13.8665 35.1525 14.1204 35.2638 14.414C35.3752 14.7076 35.3994 15.0281 35.3334 15.3357C35.2675 15.6432 35.1143 15.9244 34.8928 16.1443L17.7724 32.6504C17.177 33.2267 16.7008 33.9181 16.3717 34.6842C16.0427 35.4503 15.8674 36.2755 15.8563 37.1114C15.8344 37.9656 15.9822 38.8154 16.2907 39.61C16.5992 40.4046 17.0621 41.1277 17.6517 41.7359C18.8367 42.9756 20.4533 43.6917 22.1529 43.7298C23.8525 43.7678 25.499 43.1248 26.7373 41.9393L44.9886 24.3325C45.3749 23.9639 45.6845 23.5202 45.899 23.0277C46.1135 22.5351 46.2285 22.0037 46.2373 21.4651C46.2522 20.9266 46.1606 20.3906 45.968 19.8889C45.7753 19.3872 45.4855 18.9301 45.1158 18.5446C44.3641 17.7567 43.3377 17.3014 42.2586 17.2773C41.1794 17.2531 40.134 17.662 39.3484 18.4155L22.149 34.9199C21.9922 35.0757 21.8672 35.2615 21.7813 35.4666C21.6954 35.6718 21.6502 35.8922 21.6485 36.1151C21.6614 36.5755 21.8503 37.0125 22.175 37.3333C22.4934 37.6695 22.9295 37.8639 23.3883 37.8742C23.8471 37.8845 24.2913 37.7097 24.6242 37.3881L40.612 22.063C40.7518 21.8817 40.9284 21.7332 41.1295 21.6274C41.3307 21.5216 41.5519 21.461 41.7781 21.4497C42.0043 21.4385 42.2302 21.4768 42.4405 21.5621C42.6508 21.6473 42.8406 21.7776 42.9971 21.9441C43.1536 22.1106 43.2731 22.3093 43.3476 22.5269C43.422 22.7444 43.4496 22.9758 43.4285 23.2052C43.4074 23.4346 43.3381 23.6567 43.2253 23.8565C43.1125 24.0563 42.9588 24.2292 42.7746 24.3633L26.7043 39.8475C25.7543 40.7498 24.4954 41.2386 23.1964 41.2095C21.8974 41.1804 20.6612 40.6357 19.7518 39.6918C19.3056 39.2252 18.9552 38.6729 18.721 38.067C18.4868 37.4611 18.3736 36.8137 18.3879 36.1628C18.4022 35.5118 18.5438 34.8701 18.8044 34.2753C19.0649 33.6805 19.4393 33.1444 19.9056 32.6982L37.1875 16.0348C38.5768 14.7053 40.4236 13.9842 42.33 14.0269C44.2364 14.0696 46.0497 14.8726 47.3792 16.263C48.0333 16.9508 48.5467 17.7638 48.8896 18.6551C49.2326 19.5463 49.3984 20.498 49.3774 21.455C49.3563 22.412 49.1489 23.3553 48.7671 24.2303C48.3852 25.1053 47.8366 25.8946 47.153 26.5524L28.9 44.2396C27.0579 46.0011 24.61 46.9563 22.0832 46.8997C19.5564 46.8432 17.1529 45.7793 15.39 43.9372C14.5162 43.0265 13.8298 41.9475 13.3711 40.7634C12.9123 39.5793 12.6904 38.3138 12.7184 37.0412C12.7464 35.7685 13.0237 34.5142 13.534 33.3518C14.0444 32.1894 14.7775 31.1421 15.6905 30.2715L32.7301 13.8439C33.0285 13.5475 33.4299 13.3831 33.8468 13.3864Z" fill="url(#paint0_angular_3_175)"/>
<path d="M15.6969 34.3688C15.3878 34.355 15.0895 34.2491 14.839 34.0644C14.5885 33.8796 14.3968 33.6241 14.2877 33.3296C14.1785 33.0351 14.1568 32.7144 14.225 32.4074C14.2933 32.1004 14.4486 31.8205 14.6718 31.6024L31.9162 15.2369C32.5159 14.6656 32.9973 13.978 33.3322 13.2146C33.667 12.4513 33.8485 11.6275 33.8659 10.7917C33.8942 9.93775 33.7529 9.08673 33.4504 8.28962C33.148 7.4925 32.6905 6.76567 32.1055 6.15263C30.9299 4.9032 29.3188 4.17388 27.6195 4.1219C25.9203 4.06992 24.2691 4.69945 23.0218 5.87476L4.63828 23.3316C4.24921 23.697 3.93628 24.1382 3.71805 24.629C3.49983 25.1198 3.38077 25.6502 3.36795 26.1887C3.34895 26.7271 3.43648 27.2638 3.62533 27.7671C3.81418 28.2703 4.10051 28.7298 4.4673 29.1183C5.21303 29.9124 6.23591 30.3761 7.31487 30.4091C8.39384 30.4421 9.44224 30.0418 10.2335 29.2947L27.5569 12.9316C27.7149 12.7771 27.8413 12.5923 27.9287 12.3879C28.0162 12.1835 28.063 11.9635 28.0664 11.7405C28.057 11.2801 27.8714 10.8415 27.5491 10.5181C27.2333 10.1793 26.7987 9.98128 26.34 9.96724C25.8813 9.95321 25.4357 10.1243 25.1005 10.4432L8.99756 25.637C8.85631 25.817 8.67868 25.9641 8.4767 26.0683C8.27471 26.1724 8.05309 26.2312 7.82684 26.2406C7.60059 26.2501 7.37499 26.2099 7.16532 26.1229C6.95565 26.0359 6.7668 25.904 6.61157 25.7363C6.45633 25.5685 6.33834 25.3688 6.26557 25.1506C6.1928 24.9325 6.16695 24.7009 6.18979 24.4717C6.21262 24.2425 6.28359 24.0209 6.39791 23.822C6.51222 23.6231 6.6672 23.4516 6.85235 23.3189L23.039 7.96681C23.9958 7.07232 25.2583 6.59387 26.5571 6.63359C27.8558 6.67332 29.0878 7.22809 29.9901 8.17944C30.4327 8.64967 30.779 9.20489 31.0085 9.8127C31.2381 10.4205 31.3464 11.0688 31.3272 11.7196C31.308 12.3705 31.1616 13.0109 30.8965 13.6036C30.6315 14.1963 30.2531 14.7293 29.7835 15.1717L12.3763 31.6931C10.9771 33.0111 9.12484 33.7171 7.21885 33.6588C5.31286 33.6005 3.50568 32.7826 2.18674 31.3814C1.53791 30.6882 1.03069 29.871 0.694451 28.977C0.358212 28.0829 0.199636 27.1299 0.227907 26.1731C0.256178 25.2163 0.470734 24.2747 0.85915 23.4029C1.24757 22.531 1.80212 21.7462 2.4907 21.094L20.8766 3.55674C22.7319 1.81046 25.1869 0.875284 27.7132 0.952561C30.2394 1.02984 32.6349 2.11339 34.3837 3.96992C35.2506 4.88774 35.9289 5.97234 36.3786 7.1602C36.8284 8.34806 37.0407 9.6153 37.0031 10.8877C36.9655 12.1601 36.6788 13.4121 36.1597 14.5703C35.6406 15.7285 34.8996 16.7697 33.98 17.6329L16.817 33.9204C16.5164 34.2144 16.1138 34.3755 15.6969 34.3688Z" fill="url(#paint1_angular_3_175)"/>
<path d="M69.9766 14.4693C71.974 14.4693 73.7753 14.9453 75.3806 15.8973C77.0046 16.8493 78.246 18.1467 79.1046 19.7893L76.0526 20.9093C75.4553 19.8453 74.6153 19.0147 73.5326 18.4173C72.45 17.8013 71.2646 17.4933 69.9766 17.4933C67.9606 17.4933 66.2713 18.1747 64.9086 19.5373C63.5646 20.9187 62.8926 22.6173 62.8926 24.6333C62.8926 26.668 63.546 28.3667 64.8526 29.7293C66.1593 31.092 67.7646 31.7733 69.6686 31.7733C71.218 31.7733 72.618 31.3067 73.8686 30.3733C75.082 29.4587 75.8753 28.2453 76.2486 26.7333H69.3046V23.8213H79.8046C79.842 24.3067 79.8606 24.6053 79.8606 24.7173C79.8233 27.592 78.8433 29.9907 76.9206 31.9133C74.998 33.836 72.6086 34.7973 69.7526 34.7973C66.878 34.7973 64.47 33.8267 62.5286 31.8853C60.606 29.9627 59.6446 27.5453 59.6446 24.6333C59.6446 21.7213 60.6246 19.304 62.5846 17.3813C64.582 15.44 67.046 14.4693 69.9766 14.4693ZM97.264 28.2173H85.168C85.392 29.356 85.9426 30.2893 86.82 31.0173C87.716 31.7267 88.7706 32.0813 89.984 32.0813C91.6266 32.0813 92.9146 31.4747 93.848 30.2613L96.704 31.1293C96.032 32.268 95.0986 33.164 93.904 33.8173C92.728 34.4707 91.4213 34.7973 89.984 34.7973C87.744 34.7973 85.8866 34.0693 84.412 32.6133C82.9186 31.1573 82.172 29.3373 82.172 27.1533C82.172 24.988 82.8906 23.168 84.328 21.6933C85.784 20.2373 87.5946 19.5093 89.76 19.5093C91.9253 19.5093 93.7173 20.2373 95.136 21.6933C96.592 23.1493 97.32 24.9693 97.32 27.1533C97.32 27.228 97.3013 27.5827 97.264 28.2173ZM85.196 25.8933H94.324C94.0626 24.8107 93.5026 23.9333 92.644 23.2613C91.7853 22.5707 90.796 22.2253 89.676 22.2253C88.612 22.2253 87.66 22.5707 86.82 23.2613C85.9986 23.9333 85.4573 24.8107 85.196 25.8933ZM98.4511 22.4213V19.8733H100.663V16.9893H103.575V19.8733H107.439V22.4213H103.575V29.5893C103.575 30.168 103.762 30.6533 104.135 31.0453C104.508 31.4373 104.975 31.6333 105.535 31.6333H107.439V34.4333H105.311C104.004 34.4333 102.903 34.0133 102.007 33.1733C101.111 32.296 100.663 31.232 100.663 29.9813V22.4213H98.4511ZM114.974 17.7453H108.058V14.8333H125.026V17.7453H118.11V34.4333H114.974V17.7453ZM127.496 34.4333V13.4333H130.408V22.0013C131.509 20.34 133.133 19.5093 135.28 19.5093C136.997 19.5093 138.406 20.0507 139.508 21.1333C140.628 22.2347 141.188 23.5973 141.188 25.2213V34.4333H138.276V26.0613C138.276 24.96 137.912 24.064 137.184 23.3733C136.456 22.6453 135.541 22.2813 134.44 22.2813C133.301 22.2813 132.34 22.6453 131.556 23.3733C130.79 24.1013 130.408 25.0067 130.408 26.0893V34.4333H127.496ZM159.088 28.2173H146.992C147.216 29.356 147.767 30.2893 148.644 31.0173C149.54 31.7267 150.595 32.0813 151.808 32.0813C153.451 32.0813 154.739 31.4747 155.672 30.2613L158.528 31.1293C157.856 32.268 156.923 33.164 155.728 33.8173C154.552 34.4707 153.246 34.7973 151.808 34.7973C149.568 34.7973 147.711 34.0693 146.236 32.6133C144.743 31.1573 143.996 29.3373 143.996 27.1533C143.996 24.988 144.715 23.168 146.152 21.6933C147.608 20.2373 149.419 19.5093 151.584 19.5093C153.75 19.5093 155.542 20.2373 156.96 21.6933C158.416 23.1493 159.144 24.9693 159.144 27.1533C159.144 27.228 159.126 27.5827 159.088 28.2173ZM147.02 25.8933H156.148C155.887 24.8107 155.327 23.9333 154.468 23.2613C153.61 22.5707 152.62 22.2253 151.5 22.2253C150.436 22.2253 149.484 22.5707 148.644 23.2613C147.823 23.9333 147.282 24.8107 147.02 25.8933ZM174.789 18.8373L171.681 19.7613C171.513 19.1267 171.084 18.5947 170.393 18.1653C169.703 17.7173 168.9 17.4933 167.985 17.4933C166.977 17.4933 166.137 17.736 165.465 18.2213C164.793 18.688 164.457 19.2853 164.457 20.0133C164.345 20.648 164.821 21.2827 165.885 21.9173C166.072 22.0293 166.436 22.1787 166.977 22.3653C167.668 22.5893 168.069 22.72 168.181 22.7573L169.665 23.1773C171.14 23.5693 172.391 24.0733 173.417 24.6893C174.799 25.5293 175.489 26.8827 175.489 28.7493C175.489 30.56 174.817 32.0253 173.473 33.1453C172.111 34.2467 170.384 34.7973 168.293 34.7973C166.389 34.7973 164.756 34.3587 163.393 33.4813C162.049 32.5853 161.181 31.4653 160.789 30.1213L163.897 29.1413C164.065 29.888 164.551 30.5133 165.353 31.0173C166.175 31.5213 167.155 31.7733 168.293 31.7733C169.451 31.7733 170.412 31.5213 171.177 31.0173C171.943 30.4947 172.325 29.8227 172.325 29.0013C172.325 28.46 172.111 27.9933 171.681 27.6013C171.308 27.228 170.925 26.9573 170.533 26.7893C170.141 26.6027 169.553 26.4067 168.769 26.2013C166.399 25.5107 164.831 24.9693 164.065 24.5773C162.236 23.588 161.321 22.1413 161.321 20.2373C161.321 18.52 161.937 17.1293 163.169 16.0653C164.401 15.0013 165.988 14.4693 167.929 14.4693C169.647 14.4693 171.131 14.8893 172.381 15.7293C173.613 16.532 174.416 17.568 174.789 18.8373ZM178.492 34.4333V13.4333H181.404V22.0013C182.505 20.34 184.129 19.5093 186.276 19.5093C187.993 19.5093 189.402 20.0507 190.504 21.1333C191.624 22.2347 192.184 23.5973 192.184 25.2213V34.4333H189.272V26.0613C189.272 24.96 188.908 24.064 188.18 23.3733C187.452 22.6453 186.537 22.2813 185.436 22.2813C184.297 22.2813 183.336 22.6453 182.552 23.3733C181.786 24.1013 181.404 25.0067 181.404 26.0893V34.4333H178.492ZM202.636 34.7973C200.452 34.7973 198.632 34.0693 197.176 32.6133C195.72 31.1573 194.992 29.3373 194.992 27.1533C194.992 24.9693 195.72 23.1493 197.176 21.6933C198.632 20.2373 200.452 19.5093 202.636 19.5093C204.82 19.5093 206.64 20.2373 208.096 21.6933C209.571 23.1493 210.308 24.9693 210.308 27.1533C210.308 29.3373 209.571 31.1573 208.096 32.6133C206.64 34.0693 204.82 34.7973 202.636 34.7973ZM202.636 31.8853C203.98 31.8853 205.082 31.4373 205.94 30.5413C206.836 29.6267 207.284 28.4973 207.284 27.1533C207.284 25.8093 206.836 24.6893 205.94 23.7933C205.082 22.8787 203.98 22.4213 202.636 22.4213C201.33 22.4213 200.228 22.8787 199.332 23.7933C198.455 24.708 198.016 25.828 198.016 27.1533C198.016 28.4787 198.455 29.608 199.332 30.5413C200.228 31.4373 201.33 31.8853 202.636 31.8853ZM216.048 19.8733V22.0013C217.15 20.34 218.876 19.5093 221.228 19.5093V22.7573C220.892 22.608 220.472 22.5333 219.968 22.5333C218.848 22.5333 217.915 22.8973 217.168 23.6253C216.422 24.316 216.048 25.212 216.048 26.3133V34.4333H213.136V19.8733H216.048ZM222.072 22.4213V19.8733H224.284V16.9893H227.196V19.8733H231.06V22.4213H227.196V29.5893C227.196 30.168 227.383 30.6533 227.756 31.0453C228.13 31.4373 228.596 31.6333 229.156 31.6333H231.06V34.4333H228.932C227.626 34.4333 226.524 34.0133 225.628 33.1733C224.732 32.296 224.284 31.232 224.284 29.9813V22.4213H222.072Z" fill="#FF00F5"/>
<defs>
<radialGradient id="paint0_angular_3_175" cx="0" cy="0" r="1" gradientUnits="userSpaceOnUse" gradientTransform="translate(31.0267 30.2116) rotate(-88.7404) scale(16.8841 18.1537)">
<stop stop-color="#F523C7" stop-opacity="0"/>
<stop offset="0.2051" stop-color="#887283"/>
<stop offset="0.56" stop-color="#A36795" stop-opacity="0.875"/>
<stop offset="0.635" stop-color="#E91EBC" stop-opacity="0.339968"/>
<stop offset="0.89" stop-color="#BB0092" stop-opacity="0.339968"/>
</radialGradient>
<radialGradient id="paint1_angular_3_175" cx="0" cy="0" r="1" gradientUnits="userSpaceOnUse" gradientTransform="translate(18.644 17.5671) rotate(91.6924) scale(16.884 18.1539)">
<stop stop-color="#F523C7" stop-opacity="0"/>
<stop offset="0.2051" stop-color="#887283"/>
<stop offset="0.56" stop-color="#A36795" stop-opacity="0.875"/>
<stop offset="0.635" stop-color="#E91EBC" stop-opacity="0.339968"/>
<stop offset="0.89" stop-color="#BB0092" stop-opacity="0.339968"/>
</radialGradient>
</defs>
</svg>
